<svg width="44" height="74" viewBox="0 0 44 74" fill="none" xmlns="http://www.w3.org/2000/svg">
<path d="M2.25 11.0909H14.0455L22.1591 30.8636H22.5682L30.6818 11.0909H42.4773V46H33.2045V25.8182H32.9318L25.1591 45.7273H19.5682L11.7955 25.6818H11.5227V46H2.25V11.0909Z" fill="url(#paint0_linear_18_59)"/>
<path d="M2.25 11.0909V10.0909H1.25V11.0909H2.25ZM14.0455 11.0909L14.9706 10.7113L14.716 10.0909H14.0455V11.0909ZM22.1591 30.8636L21.234 31.2433L21.4885 31.8636H22.1591V30.8636ZM22.5682 30.8636V31.8636H23.2388L23.4933 31.2433L22.5682 30.8636ZM30.6818 11.0909V10.0909H30.0112L29.7567 10.7113L30.6818 11.0909ZM42.4773 11.0909H43.4773V10.0909H42.4773V11.0909ZM42.4773 46V47H43.4773V46H42.4773ZM33.2045 46H32.2045V47H33.2045V46ZM33.2045 25.8182H34.2045V24.8182H33.2045V25.8182ZM32.9318 25.8182V24.8182H32.2487L32.0003 25.4545L32.9318 25.8182ZM25.1591 45.7273V46.7273H25.8422L26.0906 46.091L25.1591 45.7273ZM19.5682 45.7273L18.6358 46.0888L18.8834 46.7273H19.5682V45.7273ZM11.7955 25.6818L12.7278 25.3203L12.4802 24.6818H11.7955V25.6818ZM11.5227 25.6818V24.6818H10.5227V25.6818H11.5227ZM11.5227 46V47H12.5227V46H11.5227ZM2.25 46H1.25V47H2.25V46ZM2.25 12.0909H14.0455V10.0909H2.25V12.0909ZM13.1203 11.4705L21.234 31.2433L23.0842 30.484L14.9706 10.7113L13.1203 11.4705ZM22.1591 31.8636H22.5682V29.8636H22.1591V31.8636ZM23.4933 31.2433L31.607 11.4705L29.7567 10.7113L21.643 30.484L23.4933 31.2433ZM30.6818 12.0909H42.4773V10.0909H30.6818V12.0909ZM41.4773 11.0909V46H43.4773V11.0909H41.4773ZM42.4773 45H33.2045V47H42.4773V45ZM34.2045 46V25.8182H32.2045V46H34.2045ZM33.2045 24.8182H32.9318V26.8182H33.2045V24.8182ZM32.0003 25.4545L24.2276 45.3636L26.0906 46.091L33.8633 26.1819L32.0003 25.4545ZM25.1591 44.7273H19.5682V46.7273H25.1591V44.7273ZM20.5005 45.3657L12.7278 25.3203L10.8631 26.0433L18.6358 46.0888L20.5005 45.3657ZM11.7955 24.6818H11.5227V26.6818H11.7955V24.6818ZM10.5227 25.6818V46H12.5227V25.6818H10.5227ZM11.5227 45H2.25V47H11.5227V45ZM3.25 46V11.0909H1.25V46H3.25Z" fill="white"/>
<path d="M14.2614 74L20.0568 39.0909H42.4205L41.5341 44.392H25.4943L23.9261 53.8693H38.4318L37.5455 59.1705H23.0398L20.5852 74H14.2614Z" fill="url(#paint1_linear_18_59)"/>
<path d="M14.2614 74L13.2749 73.8362L13.0817 75H14.2614V74ZM20.0568 39.0909V38.0909H19.2091L19.0703 38.9271L20.0568 39.0909ZM42.4205 39.0909L43.4068 39.2558L43.6015 38.0909H42.4205V39.0909ZM41.5341 44.392V45.392H42.3808L42.5204 44.557L41.5341 44.392ZM25.4943 44.392V43.392H24.6462L24.5077 44.2288L25.4943 44.392ZM23.9261 53.8693L22.9396 53.7061L22.7471 54.8693H23.9261V53.8693ZM38.4318 53.8693L39.4181 54.0342L39.6129 52.8693H38.4318V53.8693ZM37.5455 59.1705V60.1705H38.3921L38.5318 59.3354L37.5455 59.1705ZM23.0398 59.1705V58.1705H22.1917L22.0532 59.0072L23.0398 59.1705ZM20.5852 74V75H21.4333L21.5718 74.1633L20.5852 74ZM15.2479 74.1638L21.0433 39.2547L19.0703 38.9271L13.2749 73.8362L15.2479 74.1638ZM20.0568 40.0909H42.4205V38.0909H20.0568V40.0909ZM41.4341 38.926L40.5478 44.2271L42.5204 44.557L43.4068 39.2558L41.4341 38.926ZM41.5341 43.392H25.4943V45.392H41.5341V43.392ZM24.5077 44.2288L22.9396 53.7061L24.9127 54.0326L26.4809 44.5553L24.5077 44.2288ZM23.9261 54.8693H38.4318V52.8693H23.9261V54.8693ZM37.4455 53.7044L36.5591 59.0055L38.5318 59.3354L39.4181 54.0342L37.4455 53.7044ZM37.5455 58.1705H23.0398V60.1705H37.5455V58.1705ZM22.0532 59.0072L19.5987 73.8367L21.5718 74.1633L24.0264 59.3337L22.0532 59.0072ZM20.5852 73H14.2614V75H20.5852V73Z" fill="white"/>
<defs>
<linearGradient id="paint0_linear_18_59" x1="44" y1="46" x2="1.55669e-07" y2="46" gradientUnits="userSpaceOnUse">
<stop offset="0.0723405" stop-color="#1FA6C0"/>
<stop offset="1" stop-color="#04B69B"/>
</linearGradient>
<linearGradient id="paint1_linear_18_59" x1="43" y1="74" x2="13" y2="74" gradientUnits="userSpaceOnUse">
<stop stop-color="#1FA6C0"/>
<stop offset="1" stop-color="#04B69B"/>
</linearGradient>
</defs>
</svg>
